<?xml version="1.0" encoding="utf-8"?>
<!-- Generator: Adobe Illustrator 23.0.1, SVG Export Plug-In . SVG Version: 6.00 Build 0)  -->
<svg version="1.1" id="Layer_1" xmlns="http://www.w3.org/2000/svg" xmlns:xlink="http://www.w3.org/1999/xlink" x="0px" y="0px"
	 viewBox="0 0 571 610" style="enable-background:new 0 0 571 610;" xml:space="preserve">
<style type="text/css">
	.st0{fill:url(#SVGID_1_);}
	.st1{fill:url(#SVGID_2_);}
	.st2{fill:url(#SVGID_3_);}
	.st3{fill:url(#SVGID_4_);}
	.st4{fill:url(#SVGID_5_);}
	.st5{fill:url(#SVGID_6_);}
	.st6{fill:url(#SVGID_7_);}
	.st7{fill:#FFFFFF;}
</style>
<g>
	
		<linearGradient id="SVGID_1_" gradientUnits="userSpaceOnUse" x1="281.6519" y1="404.8122" x2="384.9919" y2="404.8122" gradientTransform="matrix(1 0 0 -1 0 612)">
		<stop  offset="0.22" style="stop-color:#FFFFFF;stop-opacity:0.5"/>
		<stop  offset="0.92" style="stop-color:#FFFFFF"/>
	</linearGradient>
	<polygon class="st0" points="384.99,239.69 380.99,239.69 380.99,178.68 281.65,178.68 281.65,174.68 384.99,174.68 	"/>
	
		<linearGradient id="SVGID_2_" gradientUnits="userSpaceOnUse" x1="174.7318" y1="252.1072" x2="264.9818" y2="252.1072" gradientTransform="matrix(1 0 0 -1 0 612)">
		<stop  offset="0.22" style="stop-color:#FFFFFF;stop-opacity:0.5"/>
		<stop  offset="0.92" style="stop-color:#FFFFFF"/>
	</linearGradient>
	<polygon class="st1" points="264.98,392.4 174.73,392.4 174.73,327.38 178.73,327.38 178.73,388.4 264.98,388.4 	"/>
	
		<linearGradient id="SVGID_3_" gradientUnits="userSpaceOnUse" x1="317.8431" y1="328.2254" x2="407.982" y2="328.2254" gradientTransform="matrix(1 0 0 -1 0 612)">
		<stop  offset="0.22" style="stop-color:#FFFFFF;stop-opacity:0.5"/>
		<stop  offset="0.92" style="stop-color:#FFFFFF"/>
	</linearGradient>
	<path class="st2" d="M355.22,290.45c2.24,2.37,14.41,4.17,18.65,6.22l-7.17,2.01c-9.82,3.05-13.5,5-20.47,6.84
		c-3.03,0.78-6.01,1.75-8.92,2.9c-3.79,1.41-7.48,3.06-11.06,4.94c-3.35,1.77-6.21,4.34-8.34,7.47c0,0-0.46,0.45,1-3.82
		c5.68-19.58,7.69-28.77,7.57-50.43c0,0,51.24,3.06,81.5-19.88C408,246.73,406.35,297.16,355.22,290.45z"/>
	
		<linearGradient id="SVGID_4_" gradientUnits="userSpaceOnUse" x1="239.9906" y1="328.1753" x2="149.8519" y2="328.1753" gradientTransform="matrix(1 0 0 -1 0 612)">
		<stop  offset="0.22" style="stop-color:#FFFFFF;stop-opacity:0.5"/>
		<stop  offset="0.92" style="stop-color:#FFFFFF"/>
	</linearGradient>
	<path class="st3" d="M239.92,320.86c-2.13-3.13-4.99-5.7-8.33-7.47c-3.58-1.88-7.28-3.53-11.07-4.94c-2.91-1.15-5.89-2.12-8.92-2.9
		c-7-1.84-10.65-3.79-20.47-6.84l-7.15-2c4.24-2.05,16.41-3.85,18.66-6.22c-51.14,6.71-52.79-43.72-52.79-43.72
		c30.26,22.94,81.51,19.88,81.51,19.88c-0.13,21.66,1.88,30.85,7.56,50.43C240.38,321.31,239.92,320.86,239.92,320.86z"/>
	
		<linearGradient id="SVGID_5_" gradientUnits="userSpaceOnUse" x1="234.847" y1="318.0922" x2="323.3424" y2="318.0922" gradientTransform="matrix(1 0 0 -1 0 612)">
		<stop  offset="0.22" style="stop-color:#FFFFFF;stop-opacity:0.5"/>
		<stop  offset="0.92" style="stop-color:#FFFFFF"/>
	</linearGradient>
	<path class="st4" d="M279.11,223.96c-24.42,0-43.66,20-44.22,44.66c-1.68,73.14,44.35,95.23,44.35,95.23s44.1-24.5,44.1-95.23
		c0.12-24.54-19.68-44.54-44.22-44.66C279.12,223.96,279.12,223.96,279.11,223.96z M281,294.48c-1.23,0.47-2.59,0.47-3.82,0
		c-9.15-3.49-47.17-20.13-23.93-48.07l-4.31-4.47c22.48,3.14,30.15,24.26,30.15,24.26s7.68-21.12,30.15-24.26l-4.31,4.47
		C328.17,274.35,290.15,290.99,281,294.48L281,294.48z"/>
	
		<linearGradient id="SVGID_6_" gradientUnits="userSpaceOnUse" x1="273.7044" y1="333.1558" x2="284.4803" y2="333.1558" gradientTransform="matrix(1 0 0 -1 0 612)">
		<stop  offset="0.22" style="stop-color:#FFFFFF;stop-opacity:0.5"/>
		<stop  offset="0.92" style="stop-color:#FFFFFF"/>
	</linearGradient>
	<path class="st5" d="M284.34,275.68l-4.92,12.78l-5.53-12.29c-0.35-0.76-0.2-1.66,0.37-2.28l3.77-4.08
		c0.69-0.74,1.86-0.79,2.6-0.09c0.05,0.05,0.1,0.09,0.14,0.14l3.2,3.7C284.48,274.15,284.62,274.96,284.34,275.68z"/>
</g>
<g>
	<path class="st7" d="M165.39,430.98l-3.12,2.39c-1.72-2.24-3.78-3.93-6.19-5.09c-2.41-1.15-5.05-1.73-7.94-1.73
		c-3.15,0-6.07,0.76-8.75,2.27c-2.69,1.51-4.77,3.54-6.24,6.1c-1.48,2.55-2.22,5.42-2.22,8.61c0,4.82,1.65,8.84,4.96,12.06
		c3.3,3.22,7.47,4.83,12.5,4.83c5.53,0,10.16-2.17,13.88-6.5l3.12,2.36c-1.97,2.51-4.43,4.44-7.37,5.81
		c-2.95,1.37-6.24,2.05-9.87,2.05c-6.91,0-12.36-2.3-16.35-6.9c-3.35-3.88-5.02-8.58-5.02-14.07c0-5.78,2.03-10.65,6.08-14.6
		c4.06-3.95,9.14-5.92,15.24-5.92c3.69,0,7.02,0.73,9.99,2.19C161.05,426.3,163.49,428.35,165.39,430.98z"/>
	<path class="st7" d="M189.45,423.65l18.42,39.5h-4.26l-6.21-13h-17.02l-6.15,13h-4.4l18.66-39.5H189.45z M188.95,432.04l-6.77,14.3
		h13.51L188.95,432.04z"/>
	<path class="st7" d="M213.97,423.65h7.87c4.51,0,7.56,0.2,9.13,0.59c2.26,0.55,4.1,1.7,5.53,3.42c1.43,1.73,2.15,3.9,2.15,6.51
		c0,2.63-0.7,4.8-2.09,6.51s-3.32,2.86-5.77,3.45c-1.79,0.43-5.14,0.64-10.04,0.64h-2.82v18.37h-3.95V423.65z M217.91,427.52v13.4
		l6.69,0.08c2.7,0,4.68-0.25,5.94-0.74c1.25-0.49,2.24-1.29,2.95-2.39c0.72-1.1,1.07-2.33,1.07-3.69c0-1.32-0.36-2.53-1.07-3.63
		c-0.72-1.1-1.66-1.88-2.83-2.35c-1.17-0.46-3.09-0.7-5.76-0.7H217.91z"/>
	<path class="st7" d="M242.62,427.52v-3.87h21.65v3.87h-8.81v35.64h-4.03v-35.64H242.62z"/>
	<path class="st7" d="M270.1,423.65h3.95v23.85c0,2.83,0.05,4.59,0.16,5.29c0.2,1.56,0.65,2.86,1.37,3.91
		c0.72,1.05,1.82,1.92,3.3,2.63s2.98,1.06,4.49,1.06c1.31,0,2.56-0.28,3.76-0.83c1.2-0.55,2.2-1.32,3.01-2.31
		c0.81-0.98,1.4-2.17,1.77-3.57c0.27-1,0.4-3.06,0.4-6.18v-23.85h3.95v23.85c0,3.53-0.34,6.38-1.03,8.55
		c-0.69,2.18-2.07,4.07-4.14,5.68c-2.07,1.61-4.57,2.42-7.51,2.42c-3.19,0-5.92-0.76-8.19-2.28s-3.8-3.54-4.57-6.04
		c-0.48-1.54-0.72-4.31-0.72-8.33V423.65z"/>
	<path class="st7" d="M306.19,423.65h7.87c4.39,0,7.36,0.18,8.92,0.54c2.35,0.54,4.25,1.69,5.72,3.46c1.47,1.77,2.2,3.94,2.2,6.52
		c0,2.15-0.51,4.04-1.52,5.67c-1.01,1.63-2.46,2.86-4.34,3.7c-1.88,0.83-4.48,1.26-7.79,1.28l14.21,18.34h-4.88l-14.21-18.34h-2.23
		v18.34h-3.95V423.65z M310.14,427.52v13.43l6.81,0.05c2.64,0,4.59-0.25,5.85-0.75c1.26-0.5,2.25-1.3,2.96-2.4
		c0.71-1.1,1.06-2.33,1.06-3.69c0-1.33-0.36-2.53-1.08-3.61c-0.72-1.08-1.66-1.86-2.82-2.32c-1.17-0.47-3.1-0.7-5.81-0.7H310.14z"/>
	<path class="st7" d="M338.79,423.65h3.95v39.5h-3.95V423.65z"/>
	<path class="st7" d="M388.58,430.98l-3.12,2.39c-1.72-2.24-3.78-3.93-6.19-5.09c-2.41-1.15-5.05-1.73-7.94-1.73
		c-3.15,0-6.07,0.76-8.75,2.27c-2.69,1.51-4.77,3.54-6.25,6.1c-1.48,2.55-2.22,5.42-2.22,8.61c0,4.82,1.65,8.84,4.96,12.06
		c3.3,3.22,7.47,4.83,12.5,4.83c5.53,0,10.16-2.17,13.88-6.5l3.12,2.36c-1.97,2.51-4.43,4.44-7.37,5.81
		c-2.95,1.37-6.23,2.05-9.87,2.05c-6.91,0-12.36-2.3-16.36-6.9c-3.35-3.88-5.02-8.58-5.02-14.07c0-5.78,2.03-10.65,6.08-14.6
		c4.06-3.95,9.14-5.92,15.24-5.92c3.69,0,7.02,0.73,9.99,2.19C384.25,426.3,386.68,428.35,388.58,430.98z"/>
	<path class="st7" d="M412.64,423.65l18.42,39.5h-4.26l-6.21-13h-17.02l-6.15,13h-4.4l18.66-39.5H412.64z M412.15,432.04l-6.77,14.3
		h13.51L412.15,432.04z"/>
</g>
</svg>
